# xmcd CD database file
#
# Track frame offsets:
#	150
#	24549
#	49333
#	94441
#	130035
#	149351
#	204928
#	221034
#	242320
#	264775
#
# Disc length: 3776 seconds
#
# Revision: 0
# Processed by: cddbd v1.5.2PL0 Copyright (c) Steve Scherf et al.
# Submitted via: CDex 1.81
#
DISCID=8a0ebe0a
DTITLE=Maynard Ferguson - M.F. Horn and M.F. Horn 2 (part 1)
DYEAR=1972
DGENRE=Jazz
TTITLE0=Eli's Comin'
TTITLE1=Ballad to Max
TTITLE2=MacArthur Park
TTITLE3=Chala Nata
TTITLE4=If I Thought You'd Ever Change Your Mind
TTITLE5=L-Dopa
TTITLE6=Give It One
TTITLE7=Country Road
TTITLE8=Theme From "Shaft"
TTITLE9=The Summer Knows
EXTD=YEAR: 1972
EXTT0=
EXTT1=
EXTT2=
EXTT3=
EXTT4=
EXTT5=
EXTT6=
EXTT7=
EXTT8=
EXTT9=
PLAYORDER=
